<svg xmlns="http://www.w3.org/2000/svg" viewBox="0 0 160 160" role="img" aria-label="금화 주머니">
  <defs>
    <radialGradient id="a" cx="50%" cy="42%" r="62%"><stop offset="0" stop-color="#fff8b7" stop-opacity=".9"/><stop offset=".42" stop-color="#ffc84f" stop-opacity=".28"/><stop offset="1" stop-color="#b85b17" stop-opacity="0"/></radialGradient>
    <linearGradient id="b" x1=".2" y1=".05" x2=".8" y2="1"><stop stop-color="#a44927"/><stop offset=".46" stop-color="#70241e"/><stop offset="1" stop-color="#32161a"/></linearGradient>
    <linearGradient id="c" x1="0" y1="0" x2="1" y2="1"><stop stop-color="#fff3a0"/><stop offset=".35" stop-color="#f8bf39"/><stop offset=".72" stop-color="#bd671b"/><stop offset="1" stop-color="#74401b"/></linearGradient>
    <filter id="g" x="-35%" y="-35%" width="170%" height="180%"><feGaussianBlur stdDeviation="4" result="q"/><feMerge><feMergeNode in="q"/><feMergeNode in="SourceGraphic"/></feMerge></filter>
  </defs>
  <circle cx="80" cy="78" r="69" fill="url(#a)"/>
  <g filter="url(#g)">
    <ellipse cx="80" cy="132" rx="46" ry="9" fill="#03080a" opacity=".55"/>
    <path d="M53 43c9 7 45 7 54 0l-8 20c22 15 34 34 30 55-5 25-91 25-97 0-4-21 8-40 30-55z" fill="url(#b)" stroke="#e9a83b" stroke-width="3"/>
    <path d="M51 54c12 8 46 8 58 0" fill="none" stroke="#ffc954" stroke-width="7" stroke-linecap="round"/>
    <path d="M60 41c2-11 10-18 20-18 10 0 18 7 20 18-9 4-31 4-40 0z" fill="#3b2021" stroke="#bb7731" stroke-width="3"/>
    <path d="M59 58l-10 12m52-12 10 12" stroke="#ffd361" stroke-width="3" stroke-linecap="round"/>
    <circle cx="80" cy="96" r="22" fill="url(#c)" stroke="#fff1a1" stroke-width="3"/>
    <circle cx="80" cy="96" r="15" fill="none" stroke="#9b5318" stroke-width="2" opacity=".7"/>
    <path d="M80 84v24m-8-17h11c7 0 7 10 0 10H72" fill="none" stroke="#fff2a0" stroke-width="4" stroke-linecap="round" stroke-linejoin="round"/>
    <circle cx="42" cy="103" r="12" fill="url(#c)" stroke="#ffe790" stroke-width="2"/><circle cx="119" cy="109" r="13" fill="url(#c)" stroke="#ffe790" stroke-width="2"/>
  </g>
  <g fill="#fff8bb"><circle cx="33" cy="61" r="2"/><circle cx="124" cy="48" r="3"/><path d="M133 72l3 6 6 3-6 3-3 6-3-6-6-3 6-3z"/></g>
</svg>
