<svg xmlns="http://www.w3.org/2000/svg" width="1680" height="945" viewBox="0 0 1680 945">
  <defs>
    <radialGradient id="bgGlow" cx="50%" cy="48%" r="70%">
      <stop offset="0%" stop-color="#112449"/>
      <stop offset="48%" stop-color="#07162f"/>
      <stop offset="100%" stop-color="#020917"/>
    </radialGradient>
    <filter id="softGlow" x="-40%" y="-40%" width="180%" height="180%">
      <feGaussianBlur stdDeviation="4" result="blur"/>
      <feMerge>
        <feMergeNode in="blur"/>
        <feMergeNode in="SourceGraphic"/>
      </feMerge>
    </filter>
    <filter id="shadow" x="-20%" y="-20%" width="140%" height="140%">
      <feDropShadow dx="0" dy="10" stdDeviation="12" flood-color="#000000" flood-opacity="0.45"/>
    </filter>
    <style>
      .ko { font-family: "Malgun Gothic", "Apple SD Gothic Neo", "Noto Sans KR", Arial, sans-serif; }
      .title { font-size: 34px; font-weight: 800; fill: #ffffff; stroke: none; letter-spacing: 0; }
      .subtitle { font-size: 24px; font-weight: 800; fill: #e8f0ff; stroke: none; }
      .small { font-size: 18px; font-weight: 700; fill: #dbe8ff; stroke: none; }
      .tiny { font-size: 15px; font-weight: 600; fill: #aab9d8; stroke: none; }
      .caption { font-size: 22px; font-weight: 800; fill: #ffffff; stroke: none; }
      .muted { fill: #b9c7df; }
      .blue { fill: #4b8cff; }
      .yellow { fill: #ffd91a; }
      .red { fill: #ff3a3a; }
      .panel { fill: rgba(4, 14, 31, 0.72); stroke-width: 3; filter: url(#shadow); }
      .inner { fill: rgba(14, 30, 54, 0.72); stroke: rgba(162, 184, 225, 0.45); stroke-width: 1.5; }
      .dash { stroke: #71839c; stroke-dasharray: 10 12; stroke-width: 2; opacity: 0.55; }
    </style>
    <marker id="arrowRed" markerWidth="12" markerHeight="12" refX="10" refY="6" orient="auto">
      <path d="M0,0 L12,6 L0,12 Z" fill="#ff3030"/>
    </marker>
    <marker id="arrowYellow" markerWidth="12" markerHeight="12" refX="10" refY="6" orient="auto">
      <path d="M0,0 L12,6 L0,12 Z" fill="#ffd91a"/>
    </marker>
    <marker id="arrowBlue" markerWidth="12" markerHeight="12" refX="10" refY="6" orient="auto">
      <path d="M0,0 L12,6 L0,12 Z" fill="#2f86ff"/>
    </marker>
  </defs>

  <rect width="1680" height="945" fill="url(#bgGlow)"/>
  <rect x="1" y="1" width="1678" height="943" fill="none" stroke="#0d2b58" stroke-width="2"/>

  <g class="ko" transform="translate(440 30)">
    <rect x="0" y="0" width="805" height="82" rx="14" fill="rgba(10,20,39,0.78)" stroke="#6c7890" stroke-width="2"/>
    <path d="M52 16 L74 27 L74 50 C74 62 64 70 52 76 C40 70 30 62 30 50 L30 27 Z" fill="none" stroke="#4b8cff" stroke-width="4"/>
    <path d="M42 45 L50 53 L64 35" fill="none" stroke="#4b8cff" stroke-width="4" stroke-linecap="round" stroke-linejoin="round"/>
    <text x="114" y="54" class="title">카메라 공유기 포트포워딩 없이 웹 중계 구성</text>
  </g>

  <!-- Cameras -->
  <g class="ko" transform="translate(52 140)">
    <rect x="0" y="0" width="205" height="170" rx="12" fill="rgba(35,10,20,0.68)" stroke="#ff3030" stroke-width="3"/>
    <g transform="translate(64 30)" filter="url(#softGlow)">
      <rect x="0" y="18" width="76" height="38" rx="8" fill="#ff3939"/>
      <path d="M12 18 L95 4 L102 42 L76 56 L0 56 Z" fill="#ff5555" stroke="#ff8080" stroke-width="2"/>
      <circle cx="80" cy="35" r="18" fill="#5b0710" stroke="#ff8181" stroke-width="4"/>
      <circle cx="80" cy="35" r="8" fill="#ff3333"/>
      <path d="M14 56 L-12 70 L-12 84" fill="none" stroke="#ff4545" stroke-width="8" stroke-linecap="round"/>
    </g>
    <text x="102" y="148" text-anchor="middle" class="caption">IP 카메라 1</text>

    <rect x="0" y="205" width="205" height="170" rx="12" fill="rgba(35,10,20,0.68)" stroke="#ff3030" stroke-width="3"/>
    <g transform="translate(55 232)" filter="url(#softGlow)">
      <ellipse cx="48" cy="42" rx="54" ry="18" fill="#ff4747"/>
      <rect x="5" y="34" width="86" height="44" rx="20" fill="#e22d2d"/>
      <circle cx="48" cy="59" r="27" fill="#6d0610" stroke="#ff7777" stroke-width="4"/>
      <circle cx="48" cy="59" r="12" fill="#ff2f2f"/>
    </g>
    <text x="102" y="353" text-anchor="middle" class="caption">IP 카메라 2</text>

    <rect x="0" y="410" width="205" height="170" rx="12" fill="rgba(35,10,20,0.68)" stroke="#ff3030" stroke-width="3"/>
    <g transform="translate(62 438)" filter="url(#softGlow)">
      <path d="M8 35 L96 20 L112 66 L26 82 Z" fill="#ff4a4a" stroke="#ff8686" stroke-width="2"/>
      <circle cx="88" cy="51" r="24" fill="#680812" stroke="#ff7676" stroke-width="4"/>
      <circle cx="88" cy="51" r="10" fill="#ff3030"/>
      <path d="M28 82 L10 104 L58 104" fill="none" stroke="#ff4545" stroke-width="8" stroke-linecap="round"/>
    </g>
    <text x="102" y="558" text-anchor="middle" class="caption">IP 카메라 3</text>
  </g>

  <path d="M257 209 H322 Q338 209 338 225 V360" fill="none" stroke="#ff3030" stroke-width="5"/>
  <path d="M257 414 H322 Q338 414 338 398 V360" fill="none" stroke="#ff3030" stroke-width="5"/>
  <path d="M257 619 H322 Q338 619 338 603 V360" fill="none" stroke="#ff3030" stroke-width="5"/>
  <path d="M338 360 H452" fill="none" stroke="#ff3030" stroke-width="5" marker-end="url(#arrowRed)"/>

  <line x1="398" y1="158" x2="398" y2="704" class="dash"/>
  <g class="ko" transform="translate(336 406)">
    <circle cx="61" cy="22" r="27" fill="none" stroke="#dfe8fb" stroke-width="3"/>
    <path d="M34 22 H88 M61 -5 C48 9 48 35 61 49 M61 -5 C74 9 74 35 61 49" fill="none" stroke="#dfe8fb" stroke-width="2"/>
    <text x="61" y="86" text-anchor="middle" class="small">내부 IP 연결</text>
    <text x="61" y="116" text-anchor="middle" class="small">(현장 LAN)</text>
  </g>

  <!-- Agent PC -->
  <g class="ko" transform="translate(470 164)">
    <rect class="panel" x="0" y="0" width="320" height="530" rx="16" stroke="#ffdf00"/>
    <g transform="translate(58 44)" filter="url(#softGlow)" stroke="#ffdf00" stroke-width="5" fill="none">
      <rect x="0" y="0" width="145" height="110" rx="8"/>
      <rect x="30" y="28" width="40" height="32"/>
      <rect x="80" y="28" width="40" height="32"/>
      <rect x="30" y="68" width="40" height="32"/>
      <rect x="80" y="68" width="40" height="32"/>
      <path d="M72 110 V140 M36 140 H110"/>
      <rect x="165" y="8" width="62" height="128" rx="10" fill="rgba(255,217,26,0.08)"/>
      <path d="M185 38 H210 M194 78 H210"/>
      <circle cx="196" cy="104" r="6" fill="#ffdf00"/>
    </g>
    <text x="160" y="246" text-anchor="middle" class="subtitle yellow">DreamineVMS Agent</text>
    <text x="160" y="284" text-anchor="middle" class="small">현장 PC 설치</text>
    <rect class="inner" x="32" y="310" width="256" height="195" rx="12"/>
    <g transform="translate(58 338)" fill="none" stroke="#ffdf00" stroke-width="4" stroke-linecap="round" stroke-linejoin="round">
      <path d="M0 20 L18 2 M12 32 L32 12"/>
      <path d="M78 0 H106 V28 H78 Z M112 8 L132 0 V28 L112 20 Z" transform="translate(0 58)"/>
      <path d="M16 0 V36 M4 12 L16 0 L28 12 M0 42 H36" transform="translate(0 126)"/>
    </g>
    <text x="150" y="365" class="small">카메라 연결</text>
    <text x="150" y="431" class="small">웹용 영상 변환</text>
    <text x="150" y="499" class="small">서버로 업로드</text>
  </g>

  <path d="M802 360 H910" fill="none" stroke="#ffdf00" stroke-width="5" marker-end="url(#arrowYellow)"/>
  <g class="ko" transform="translate(820 408)">
    <ellipse cx="54" cy="18" rx="28" ry="12" fill="none" stroke="#dfe8fb" stroke-width="3"/>
    <path d="M26 18 V72 C26 79 82 79 82 72 V18 M26 45 C26 52 82 52 82 45" fill="none" stroke="#dfe8fb" stroke-width="3"/>
    <text x="54" y="113" text-anchor="middle" class="small">웹용 HLS</text>
    <text x="54" y="143" text-anchor="middle" class="small">업로드</text>
  </g>

  <!-- Web Server -->
  <g class="ko" transform="translate(915 164)">
    <rect class="panel" x="0" y="0" width="282" height="530" rx="16" stroke="#ffdf00"/>
    <g transform="translate(78 46)" filter="url(#softGlow)" stroke="#ffdf00" stroke-width="5" fill="none">
      <rect x="0" y="0" width="128" height="128" rx="8"/>
      <path d="M0 42 H128 M0 84 H128 M34 128 V150 M12 150 H58"/>
      <circle cx="28" cy="22" r="4" fill="#ffdf00"/>
      <circle cx="88" cy="22" r="4" fill="#ffdf00"/>
      <circle cx="104" cy="22" r="4" fill="#ffdf00"/>
      <circle cx="28" cy="64" r="4" fill="#ffdf00"/>
      <circle cx="88" cy="64" r="4" fill="#ffdf00"/>
      <circle cx="104" cy="64" r="4" fill="#ffdf00"/>
    </g>
    <text x="141" y="246" text-anchor="middle" class="subtitle yellow">DreamineVMS.Web</text>
    <text x="141" y="284" text-anchor="middle" class="small">웹 서버 설치</text>
    <rect class="inner" x="24" y="310" width="234" height="195" rx="12"/>
    <g transform="translate(50 336)" fill="none" stroke="#ffdf00" stroke-width="4" stroke-linecap="round" stroke-linejoin="round">
      <rect x="0" y="0" width="34" height="34" rx="4"/><path d="M13 9 L25 17 L13 25 Z" fill="#ffdf00"/>
      <circle cx="18" cy="86" r="24"/><path d="M-6 86 H42 M18 62 C6 75 6 97 18 110 M18 62 C30 75 30 97 18 110"/>
      <circle cx="18" cy="154" r="20"/><path d="M18 130 V120 M18 188 V178 M42 154 H52 M-16 154 H-6 M35 137 L43 129 M1 171 L-7 179 M35 171 L43 179 M1 137 L-7 129"/>
    </g>
    <text x="118" y="363" class="small">실시간 중계</text>
    <text x="118" y="431" class="small">웹 접속 제공</text>
    <text x="118" y="499" class="small">통합 관리</text>
  </g>

  <line x1="1269" y1="158" x2="1269" y2="704" class="dash"/>
  <path d="M1215 360 H1332" fill="none" stroke="#2f86ff" stroke-width="5" marker-end="url(#arrowBlue)"/>
  <g class="ko" transform="translate(1210 405)">
    <path d="M45 0 C68 18 68 18 91 0 M25 26 C57 52 57 52 111 26 M5 52 C57 96 57 96 131 52" fill="none" stroke="#dfe8fb" stroke-width="5" stroke-linecap="round"/>
    <circle cx="68" cy="90" r="7" fill="#dfe8fb"/>
    <text x="68" y="136" text-anchor="middle" class="small">인터넷 접속</text>
    <text x="68" y="166" text-anchor="middle" class="small">실시간 시청</text>
  </g>

  <!-- Clients -->
  <g class="ko" transform="translate(1405 140)" stroke="#2f86ff" stroke-width="3">
    <rect x="0" y="0" width="215" height="170" rx="12" fill="rgba(10,22,46,0.72)"/>
    <g transform="translate(55 28)" fill="none" stroke="#4b8cff" stroke-width="4">
      <rect x="0" y="0" width="108" height="88" rx="6"/>
      <path d="M0 20 H108"/>
      <circle cx="54" cy="54" r="27"/>
      <path d="M27 54 H81 M54 27 C41 41 41 67 54 81 M54 27 C67 41 67 67 54 81"/>
    </g>
    <text x="108" y="147" text-anchor="middle" class="caption">웹 브라우저</text>

    <rect x="0" y="205" width="215" height="170" rx="12" fill="rgba(10,22,46,0.72)"/>
    <g transform="translate(54 238)" fill="none" stroke="#4b8cff" stroke-width="6">
      <rect x="0" y="0" width="110" height="78" rx="6"/>
      <path d="M55 78 V105 M24 105 H86"/>
    </g>
    <text x="108" y="352" text-anchor="middle" class="caption">PC 클라이언트</text>

    <rect x="0" y="410" width="215" height="170" rx="12" fill="rgba(10,22,46,0.72)"/>
    <g transform="translate(77 435)" fill="none" stroke="#4b8cff" stroke-width="6">
      <rect x="0" y="0" width="62" height="112" rx="8"/>
      <circle cx="31" cy="96" r="3" fill="#4b8cff"/>
    </g>
    <text x="108" y="558" text-anchor="middle" class="caption">모바일 기기</text>
  </g>
  <path d="M1345 214 H1400" fill="none" stroke="#2f86ff" stroke-width="5" marker-end="url(#arrowBlue)"/>
  <path d="M1345 360 H1400" fill="none" stroke="#2f86ff" stroke-width="5" marker-end="url(#arrowBlue)"/>
  <path d="M1345 566 H1400" fill="none" stroke="#2f86ff" stroke-width="5" marker-end="url(#arrowBlue)"/>
  <path d="M1345 214 Q1315 214 1315 360 Q1315 566 1345 566" fill="none" stroke="#2f86ff" stroke-width="5"/>

  <!-- Bottom note -->
  <g class="ko" transform="translate(154 746)">
    <rect x="0" y="0" width="1374" height="160" rx="12" fill="rgba(8,18,35,0.78)" stroke="#435777" stroke-width="2"/>
    <g transform="translate(52 36)" fill="none" stroke="#2f86ff" stroke-width="3">
      <path d="M28 54 C20 36 33 20 50 22 C60 4 90 6 98 28 C118 30 128 45 124 62 H28 Z"/>
      <text x="73" y="65" text-anchor="middle" class="ko" font-size="24" font-weight="800" fill="#ffffff" stroke="none">LAN</text>
      <path d="M73 80 V110 M36 110 H110 M36 110 V130 M73 110 V130 M110 110 V130"/>
      <rect x="24" y="130" width="22" height="18"/><rect x="62" y="130" width="22" height="18"/><rect x="100" y="130" width="22" height="18"/>
    </g>
    <text x="216" y="50" class="subtitle blue">카메라 RTSP 포트를 외부에 개방하지 않고 웹으로 중계합니다.</text>
    <text x="216" y="91" class="small">
      <tspan class="red">IP 카메라</tspan>
      <tspan class="muted"> → </tspan>
      <tspan class="yellow">DreamineVMS Agent/WPF (현장 PC)</tspan>
      <tspan class="muted"> [내부 IP 연결] → </tspan>
      <tspan class="yellow">DreamineVMS.Web 서버</tspan>
      <tspan class="muted"> [웹용 HLS 업로드] → </tspan>
      <tspan class="blue">각 클라이언트</tspan>
      <tspan class="muted"> [실시간 시청]</tspan>
    </text>
    <text x="216" y="132" class="tiny">
      IP 카메라는 현장 PC와 같은 내부망(LAN)에만 연결됩니다. 현장 PC가 영상을 웹용 HLS로 변환해 서버로 업로드하고, 사용자는 브라우저/모바일로 서버에 접속합니다.
    </text>
  </g>
</svg>
