<svg xmlns="http://www.w3.org/2000/svg" viewBox="0 0 520 300" font-family="Segoe UI, Arial, sans-serif">
  <defs>
    <filter id="s" x="-20%" y="-20%" width="140%" height="140%">
      <feDropShadow dx="0" dy="6" stdDeviation="10" flood-color="#000" flood-opacity="0.22"/>
    </filter>
  </defs>
  <g filter="url(#s)"><rect x="24" y="20" width="472" height="260" rx="10" fill="#fff" stroke="#e2e2e2"/></g>
  <path d="M24 30a10 10 0 0 1 10-10h452a10 10 0 0 1 10 10v22H24z" fill="#f3f3f3"/>
  <text x="62" y="45" font-size="13" fill="#1b1b1b" font-weight="600">Button Demo — WPF</text>
  <text x="430" y="46" font-size="15" fill="#5a5a5a" letter-spacing="6">⎯ ▢ ✕</text>
  <line x1="24" y1="52" x2="496" y2="52" stroke="#ececec"/>

  <!-- DreamineButton Primary -->
  <rect x="60" y="80" width="120" height="38" rx="6" fill="#0067c0"/>
  <text x="120" y="104" font-size="14" fill="#fff" text-anchor="middle" font-weight="600">Primary</text>

  <!-- DreamineButton Blue Glow -->
  <rect x="200" y="80" width="120" height="38" rx="6" fill="#1a1a2e" stroke="#1E90FF" stroke-width="1.5"/>
  <text x="260" y="104" font-size="14" fill="#88c8ff" text-anchor="middle">Blue Glow</text>

  <!-- DreamineButton Danger -->
  <rect x="340" y="80" width="120" height="38" rx="6" fill="#c42b1c"/>
  <text x="400" y="104" font-size="14" fill="#fff" text-anchor="middle">Danger</text>

  <!-- Click count -->
  <text x="260" y="155" font-size="16" fill="#333" text-anchor="middle">클릭 횟수: 5</text>

  <!-- Activity log -->
  <rect x="60" y="175" width="400" height="85" rx="4" fill="#f5f5f5" stroke="#ddd"/>
  <text x="72" y="195" font-size="12" fill="#555">[14:32:10] Clicked (5)</text>
  <text x="72" y="213" font-size="12" fill="#555">[14:32:09] Clicked (4)</text>
  <text x="72" y="231" font-size="12" fill="#555">[14:32:08] Clicked (3)</text>
  <text x="72" y="249" font-size="12" fill="#888">[14:32:07] Clicked (2)</text>
</svg>
