<svg viewBox="0 0 520 260" xmlns="http://www.w3.org/2000/svg">
  <defs>
    <filter id="shadow" x="-4%" y="-4%" width="108%" height="112%">
      <feDropShadow dx="0" dy="2" stdDeviation="4" flood-opacity="0.15"/>
    </filter>
  </defs>
  <rect x="20" y="16" width="480" height="230" rx="10" fill="#fff" filter="url(#shadow)"/>
  <path d="M20 26a10 10 0 0 1 10-10h460a10 10 0 0 1 10 10v22H20z" fill="#f3f3f3"/>
  <text x="36" y="38" font-family="Segoe UI,sans-serif" font-size="12" fill="#333">Expander Demo</text>
  <g transform="translate(460,26)">
    <rect x="0" y="0" width="16" height="14" rx="1" fill="none"/><line x1="3" y1="7" x2="13" y2="7" stroke="#888" stroke-width="1.2"/>
    <rect x="20" y="0" width="16" height="14" rx="1" fill="none"/><rect x="23" y="3" width="10" height="8" rx="1" fill="none" stroke="#888" stroke-width="1.2"/>
    <rect x="40" y="0" width="16" height="14" rx="1" fill="none"/><line x1="44" y1="3" x2="52" y2="11" stroke="#888" stroke-width="1.2"/><line x1="52" y1="3" x2="44" y2="11" stroke="#888" stroke-width="1.2"/>
  </g>
  <!-- Expander header -->
  <rect x="50" y="64" width="420" height="34" rx="4" fill="#f8f8f8" stroke="#ddd" stroke-width="1"/>
  <text x="82" y="86" font-family="Segoe UI,sans-serif" font-size="13" fill="#0067c0" font-weight="600">&#x25BE;  펼치기 / 접기</text>
  <!-- Expanded content -->
  <rect x="50" y="98" width="420" height="80" rx="0 0 4 4" fill="#fff" stroke="#ddd" stroke-width="1" stroke-dasharray="0"/>
  <rect x="50" y="98" width="420" height="1" fill="#ddd"/>
  <text x="70" y="130" font-family="Segoe UI,sans-serif" font-size="13" fill="#444">내부에는 어떤 콘텐츠도 배치할 수 있습니다.</text>
  <rect x="70" y="142" width="160" height="22" rx="3" fill="#e8f0fe"/>
  <text x="80" y="158" font-family="Segoe UI,sans-serif" font-size="11" fill="#0067c0">추가 콘텐츠 영역</text>
  <!-- Status -->
  <text x="50" y="210" font-family="Segoe UI,sans-serif" font-size="12" fill="#555">IsExpanded = True</text>
</svg>