<svg viewBox="0 0 520 260" xmlns="http://www.w3.org/2000/svg">
  <defs>
    <filter id="shadow" x="-4%" y="-4%" width="108%" height="112%">
      <feDropShadow dx="0" dy="2" stdDeviation="4" flood-opacity="0.15"/>
    </filter>
  </defs>
  <rect x="20" y="16" width="480" height="230" rx="10" fill="#fff" filter="url(#shadow)"/>
  <path d="M20 26a10 10 0 0 1 10-10h460a10 10 0 0 1 10 10v22H20z" fill="#f3f3f3"/>
  <text x="36" y="38" font-family="Segoe UI,sans-serif" font-size="12" fill="#333">ListBox Demo</text>
  <g transform="translate(460,26)">
    <rect x="0" y="0" width="16" height="14" rx="1" fill="none"/><line x1="3" y1="7" x2="13" y2="7" stroke="#888" stroke-width="1.2"/>
    <rect x="20" y="0" width="16" height="14" rx="1" fill="none"/><rect x="23" y="3" width="10" height="8" rx="1" fill="none" stroke="#888" stroke-width="1.2"/>
    <rect x="40" y="0" width="16" height="14" rx="1" fill="none"/><line x1="44" y1="3" x2="52" y2="11" stroke="#888" stroke-width="1.2"/><line x1="52" y1="3" x2="44" y2="11" stroke="#888" stroke-width="1.2"/>
  </g>
  <!-- ListBox -->
  <rect x="60" y="58" width="200" height="150" rx="4" fill="#fff" stroke="#ccc" stroke-width="1"/>
  <text x="72" y="78" font-family="Segoe UI,sans-serif" font-size="13" fill="#333">Apple</text>
  <text x="72" y="102" font-family="Segoe UI,sans-serif" font-size="13" fill="#333">Banana</text>
  <rect x="62" y="108" width="196" height="24" rx="2" fill="#0067c0"/>
  <text x="72" y="124" font-family="Segoe UI,sans-serif" font-size="13" fill="#fff">Cherry</text>
  <text x="72" y="150" font-family="Segoe UI,sans-serif" font-size="13" fill="#333">Grape</text>
  <text x="72" y="174" font-family="Segoe UI,sans-serif" font-size="13" fill="#333">Mango</text>
  <text x="72" y="198" font-family="Segoe UI,sans-serif" font-size="13" fill="#333">Melon</text>
  <!-- Status -->
  <text x="290" y="100" font-family="Segoe UI,sans-serif" font-size="12" fill="#555">선택: Cherry</text>
  <text x="290" y="120" font-family="Segoe UI,sans-serif" font-size="11" fill="#999">항목을 더블클릭해 보세요</text>
</svg>