<svg viewBox="0 0 520 260" xmlns="http://www.w3.org/2000/svg">
  <rect x="20" y="16" width="480" height="230" rx="2" fill="#f0f0f0" stroke="#adadad" stroke-width="1"/>
  <rect x="22" y="18" width="476" height="28" fill="#fff" stroke="#bbb" stroke-width="0.5"/>
  <text x="36" y="37" font-family="Segoe UI,sans-serif" font-size="12" fill="#333">ListBox Demo</text>
  <g transform="translate(448,24)">
    <rect x="0" y="0" width="14" height="14" rx="1" fill="#e1e1e1" stroke="#adadad" stroke-width="0.5"/><line x1="3" y1="7" x2="11" y2="7" stroke="#333" stroke-width="1"/>
    <rect x="16" y="0" width="14" height="14" rx="1" fill="#e1e1e1" stroke="#adadad" stroke-width="0.5"/><rect x="19" y="3" width="8" height="8" fill="none" stroke="#333" stroke-width="1"/>
    <rect x="32" y="0" width="14" height="14" rx="1" fill="#e1e1e1" stroke="#adadad" stroke-width="0.5"/><line x1="36" y1="3" x2="42" y2="11" stroke="#333" stroke-width="1"/><line x1="42" y1="3" x2="36" y2="11" stroke="#333" stroke-width="1"/>
  </g>
  <!-- ListBox -->
  <rect x="60" y="58" width="200" height="148" rx="1" fill="#fff" stroke="#adadad" stroke-width="1"/>
  <text x="70" y="78" font-family="Segoe UI,sans-serif" font-size="12" fill="#333">Apple</text>
  <text x="70" y="100" font-family="Segoe UI,sans-serif" font-size="12" fill="#333">Banana</text>
  <rect x="61" y="106" width="198" height="20" fill="#0078d7"/>
  <text x="70" y="121" font-family="Segoe UI,sans-serif" font-size="12" fill="#fff">Cherry</text>
  <text x="70" y="143" font-family="Segoe UI,sans-serif" font-size="12" fill="#333">Grape</text>
  <text x="70" y="165" font-family="Segoe UI,sans-serif" font-size="12" fill="#333">Mango</text>
  <text x="70" y="187" font-family="Segoe UI,sans-serif" font-size="12" fill="#333">Melon</text>
  <!-- Status -->
  <text x="290" y="100" font-family="Segoe UI,sans-serif" font-size="12" fill="#555">선택: Cherry</text>
  <text x="290" y="120" font-family="Segoe UI,sans-serif" font-size="11" fill="#999">항목을 더블클릭해 보세요</text>
</svg>