<svg viewBox="0 0 300 360" xmlns="http://www.w3.org/2000/svg">
  <rect x="30" y="10" width="240" height="340" rx="34" fill="#1a1a1a"/>
  <rect x="42" y="28" width="216" height="304" rx="4" fill="#fff"/>
  <rect x="110" y="10" width="80" height="18" rx="9" fill="#1a1a1a"/>
  <rect x="42" y="28" width="216" height="40" rx="4" fill="#512BD4"/>
  <text x="150" y="54" text-anchor="middle" font-family="Segoe UI,sans-serif" font-size="14" fill="#fff" font-weight="600">CollectionView</text>
  <!-- List items -->
  <rect x="54" y="80" width="192" height="36" rx="8" fill="#f9f9f9" stroke="#eee" stroke-width="1"/>
  <text x="70" y="103" font-family="Segoe UI,sans-serif" font-size="13" fill="#333">Apple</text>
  <rect x="54" y="120" width="192" height="36" rx="8" fill="#f9f9f9" stroke="#eee" stroke-width="1"/>
  <text x="70" y="143" font-family="Segoe UI,sans-serif" font-size="13" fill="#333">Banana</text>
  <rect x="54" y="160" width="192" height="36" rx="8" fill="#512BD4"/>
  <text x="70" y="183" font-family="Segoe UI,sans-serif" font-size="13" fill="#fff">Cherry</text>
  <rect x="54" y="200" width="192" height="36" rx="8" fill="#f9f9f9" stroke="#eee" stroke-width="1"/>
  <text x="70" y="223" font-family="Segoe UI,sans-serif" font-size="13" fill="#333">Grape</text>
  <rect x="54" y="240" width="192" height="36" rx="8" fill="#f9f9f9" stroke="#eee" stroke-width="1"/>
  <text x="70" y="263" font-family="Segoe UI,sans-serif" font-size="13" fill="#333">Mango</text>
  <!-- Status -->
  <text x="54" y="300" font-family="Segoe UI,sans-serif" font-size="11" fill="#555">선택: Cherry</text>
  <text x="54" y="316" font-family="Segoe UI,sans-serif" font-size="10" fill="#999">항목을 더블클릭해 보세요</text>
  <rect x="120" y="318" width="60" height="4" rx="2" fill="#ccc"/>
</svg>