<svg viewBox="0 0 520 260" xmlns="http://www.w3.org/2000/svg">
  <rect x="20" y="16" width="480" height="230" rx="2" fill="#f0f0f0" stroke="#adadad" stroke-width="1"/>
  <rect x="22" y="18" width="476" height="28" fill="#fff" stroke="#bbb" stroke-width="0.5"/>
  <text x="36" y="37" font-family="Segoe UI,sans-serif" font-size="12" fill="#333">NumericUpDown Demo</text>
  <g transform="translate(448,24)">
    <rect x="0" y="0" width="14" height="14" rx="1" fill="#e1e1e1" stroke="#adadad" stroke-width="0.5"/><line x1="3" y1="7" x2="11" y2="7" stroke="#333" stroke-width="1"/>
    <rect x="16" y="0" width="14" height="14" rx="1" fill="#e1e1e1" stroke="#adadad" stroke-width="0.5"/><rect x="19" y="3" width="8" height="8" fill="none" stroke="#333" stroke-width="1"/>
    <rect x="32" y="0" width="14" height="14" rx="1" fill="#e1e1e1" stroke="#adadad" stroke-width="0.5"/><line x1="36" y1="3" x2="42" y2="11" stroke="#333" stroke-width="1"/><line x1="42" y1="3" x2="36" y2="11" stroke="#333" stroke-width="1"/>
  </g>
  <!-- Label -->
  <text x="60" y="78" font-family="Segoe UI,sans-serif" font-size="12" fill="#555">NumericUpDown  (0 ~ 100)</text>
  <!-- NumericUpDown -->
  <rect x="60" y="88" width="140" height="26" rx="1" fill="#fff" stroke="#adadad" stroke-width="1"/>
  <text x="100" y="106" text-anchor="middle" font-family="Segoe UI,sans-serif" font-size="14" fill="#111">50</text>
  <!-- Up/Down buttons -->
  <rect x="176" y="88" width="24" height="13" rx="1" fill="#e1e1e1" stroke="#adadad" stroke-width="0.5"/>
  <text x="188" y="98" text-anchor="middle" font-family="Segoe UI,sans-serif" font-size="9" fill="#333">&#x25B2;</text>
  <rect x="176" y="101" width="24" height="13" rx="1" fill="#e1e1e1" stroke="#adadad" stroke-width="0.5"/>
  <text x="188" y="112" text-anchor="middle" font-family="Segoe UI,sans-serif" font-size="9" fill="#333">&#x25BC;</text>
  <!-- Status -->
  <text x="60" y="150" font-family="Segoe UI,sans-serif" font-size="12" fill="#555">값: 50</text>
</svg>